<?xml version="1.0" encoding="utf-8"?>
<?xml-stylesheet type="text/xsl" href="rss1.xsl"?>
<rss version="2.0" xmlns:atom="http://www.w3.org/2005/Atom" xmlns:content="http://purl.org/rss/1.0/modules/content/" xmlns:dc="http://purl.org/dc/elements/1.1/" xmlns:media="http://search.yahoo.com/mrss/">
<channel>
 <title>Getty</title>
 <link>http://www.gettyimg.com/</link>
 <atom:link href="http://www.gettyimg.com/" rel="self" type="application/rss+xml" />

 
                <item>
                <title><![CDATA[【Music Videos】Depeche Mode - My Favourite Stranger (1080p) (Clean)]]></title>
                <link><![CDATA[https://sharemania.us/threads/depeche-mode-my-favourite-stranger-1080p-clean.236937/]]></link>
                <description><![CDATA[<article>
<blockquote class="messageText SelectQuoteContainer ugc baseHtml">
<img src="https://i.ibb.co/L9zXjBt/Depeche-Mode-My-Favourite-Stranger-1080p-mp4-thumbs-2024-02-02-16-32-07.jpg" class="bbCodeImage LbImage" alt="[​IMG]" data-url="https://i.ibb.co/L9zXjBt/Depeche-Mode-My-Favourite-Stranger-1080p-mp4-thumbs-2024-02-02-16-32-07.jpg" style=""> <br>
<br>
<div class="ToggleTriggerAnchor bbCodeSpoilerContainer">
<button type="button" class="button bbCodeSpoilerButton ToggleTrigger Tooltip JsOnly" data-target="> .SpoilerTarget"><span>Spoiler: <span class="SpoilerTitle">MediaInfo</span></span></button>
<div class="SpoilerTarget bbCodeSpoilerText">Depeche Mode - My Favourite Stranger (1080p).mp4<br>
Format : MPEG-4<br>
Format profile : Base Media<br>
Codec ID : isom (isom/iso2/avc1/mp41)<br>
File size : 64.1 MiB<br>
Duration : 3 min 56 s<br>
Overall bit rate : 2 276 kb/s<br>
Frame rate : 25.000 FPS<br>
Movie name : Depeche Mode - My Favourite Stranger<br>
Performer : DepecheMode<br>
Recorded date : 2023<br>
Writing application : Lavf58.39.101<br>
Comment : <br>
<br>
Video<br>
ID : 1<br>
Format : AVC<br>
Format/Info : Advanced Video Codec<br>
Format profile : High@L4<br>
Format settings : CABAC / 3 Ref Frames<br>
Format settings, CABAC : Yes<br>
Format settings, Reference : 3 frames<br>
Codec ID : avc1<br>
Codec ID/Info : Advanced Video Coding<br>
Duration : 3 min 56 s<br>
Bit rate : 2 143 kb/s<br>
Width : 1 920 pixels<br>
Height : 1 080 pixels<br>
Display aspect ratio : 16:9<br>
Frame rate mode : Constant<br>
Frame rate : 25.000 FPS<br>
Color space : YUV<br>
Chroma subsampling : 4:2:0<br>
Bit depth : 8 bits<br>
Scan type : Progressive<br>
Bits/(Pixel*Frame) : 0.041<br>
Stream size : 60.3 MiB (94%)<br>
Title : ISO Media file produced by Google Inc.<br>
Writing library : x264 core 155 r2901 7d0ff22<br>
Color range : Limited<br>
Color primaries : BT.709<br>
Transfer characteristics : BT.709<br>
Matrix coefficients : BT.709<br>
Codec configuration box : avcC<br>
<br>
Audio<br>
ID : 2<br>
Format : AAC LC<br>
Format/Info : Advanced Audio Codec Low Complexity<br>
Codec ID : mp4a-40-2<br>
Duration : 3 min 56 s<br>
Bit rate mode : Constant<br>
Bit rate : 128 kb/s<br>
Channel(s) : 2 channels<br>
Channel layout : L R<br>
Sampling rate : 44.1 kHz<br>
Frame rate : 43.066 FPS (1024 SPF)<br>
Compression mode : Lossy<br>
Stream size : 3.60 MiB (6%)<br>
Title : ISO Media file produced by Google Inc.<br>
Language : English<br>
Default : Yes<br>
Alternate group : 1</div>
</div><br>
<div class="bbCodeBlock bbCodeVfcHH HiddenContent">
<div class="attribution type">Hidden Content:</div>
<blockquote>You must reply before you can see the hidden data contained here.</blockquote>
</div>
<div class="messageTextEndMarker">&nbsp;</div>
</blockquote>
</article>]]></description>
                <author><![CDATA[DJ-RoGeRs-BS]]></author>
                </item>

                
                <item>
                <title><![CDATA[【Music Videos】Depeche Mode - Wagging Tongue (1080p) (Clean)]]></title>
                <link><![CDATA[https://sharemania.us/threads/depeche-mode-wagging-tongue-1080p-clean.236938/]]></link>
                <description><![CDATA[<article>
<blockquote class="messageText SelectQuoteContainer ugc baseHtml">
<img src="https://i.ibb.co/9TyRTqF/Depeche-Mode-Wagging-Tongue-1080p-mp4-thumbs-2024-02-02-16-32-32.jpg" class="bbCodeImage LbImage" alt="[​IMG]" data-url="https://i.ibb.co/9TyRTqF/Depeche-Mode-Wagging-Tongue-1080p-mp4-thumbs-2024-02-02-16-32-32.jpg" style=""> <br>
<br>
<div class="ToggleTriggerAnchor bbCodeSpoilerContainer">
<button type="button" class="button bbCodeSpoilerButton ToggleTrigger Tooltip JsOnly" data-target="> .SpoilerTarget"><span>Spoiler: <span class="SpoilerTitle">MediaInfo</span></span></button>
<div class="SpoilerTarget bbCodeSpoilerText">Depeche Mode - Wagging Tongue (1080p).mp4<br>
Format : MPEG-4<br>
Format profile : Base Media<br>
Codec ID : isom (isom/iso2/avc1/mp41)<br>
File size : 41.9 MiB<br>
Duration : 4 min 3 s<br>
Overall bit rate : 1 442 kb/s<br>
Frame rate : 25.000 FPS<br>
Movie name : Depeche Mode - Wagging Tongue<br>
Performer : DepecheMode<br>
Recorded date : 2023<br>
Writing application : Lavf58.39.101<br>
Comment :<br>
<br>
Video<br>
ID : 1<br>
Format : AVC<br>
Format/Info : Advanced Video Codec<br>
Format profile : High@L4<br>
Format settings : CABAC / 3 Ref Frames<br>
Format settings, CABAC : Yes<br>
Format settings, Reference : 3 frames<br>
Codec ID : avc1<br>
Codec ID/Info : Advanced Video Coding<br>
Duration : 4 min 3 s<br>
Bit rate : 1 308 kb/s<br>
Width : 1 420 pixels<br>
Height : 1 080 pixels<br>
Display aspect ratio : 4:3<br>
Frame rate mode : Constant<br>
Frame rate : 25.000 FPS<br>
Color space : YUV<br>
Chroma subsampling : 4:2:0<br>
Bit depth : 8 bits<br>
Scan type : Progressive<br>
Bits/(Pixel*Frame) : 0.034<br>
Stream size : 37.9 MiB (91%)<br>
Title : ISO Media file produced by Google Inc.<br>
Writing library : x264 core 155 r2901 7d0ff22<br>
Color range : Limited<br>
Color primaries : BT.709<br>
Transfer characteristics : BT.709<br>
Matrix coefficients : BT.709<br>
Codec configuration box : avcC<br>
<br>
Audio<br>
ID : 2<br>
Format : AAC LC<br>
Format/Info : Advanced Audio Codec Low Complexity<br>
Codec ID : mp4a-40-2<br>
Duration : 4 min 3 s<br>
Bit rate mode : Constant<br>
Bit rate : 128 kb/s<br>
Channel(s) : 2 channels<br>
Channel layout : L R<br>
Sampling rate : 44.1 kHz<br>
Frame rate : 43.066 FPS (1024 SPF)<br>
Compression mode : Lossy<br>
Stream size : 3.72 MiB (9%)<br>
Title : ISO Media file produced by Google Inc.<br>
Language : English<br>
Default : Yes<br>
Alternate group : 1</div>
</div><br>
<div class="bbCodeBlock bbCodeVfcHH HiddenContent">
<div class="attribution type">Hidden Content:</div>
<blockquote>You must reply before you can see the hidden data contained here.</blockquote>
</div>
<div class="messageTextEndMarker">&nbsp;</div>
</blockquote>
</article>]]></description>
                <author><![CDATA[DJ-RoGeRs-BS]]></author>
                </item>

                </channel></rss>